<?xml version="1.0" encoding="UTF-8" standalone="no"?>
<!DOCTYPE svg PUBLIC "-//W3C//DTD SVG 1.1//EN"
 "http://www.w3.org/Graphics/SVG/1.1/DTD/svg11.dtd">
<!-- Generated by graphviz version 8.0.5 (20230430.1635)
 -->
<!-- Pages: 1 -->
<svg width="652pt" height="637pt"
 viewBox="0.00 0.00 652.00 636.75" xmlns="http://www.w3.org/2000/svg" xmlns:xlink="http://www.w3.org/1999/xlink">
<g id="graph0" class="graph" transform="scale(1 1) rotate(0) translate(4 632.75)">
<polygon fill="white" stroke="none" points="-4,4 -4,-632.75 648,-632.75 648,4 -4,4"/>
<!-- 2890819084800 -->
<g id="node1" class="node">
<title>2890819084800</title>
<polygon fill="#caff70" stroke="black" points="370,-31.25 312,-31.25 312,0 370,0 370,-31.25"/>
<text text-anchor="middle" x="341" y="-5.75" font-family="monospace" font-size="10.00"> (1, 3)</text>
</g>
<!-- 2890742592800 -->
<g id="node2" class="node">
<title>2890742592800</title>
<polygon fill="lightgrey" stroke="black" points="391,-86.5 291,-86.5 291,-67.25 391,-67.25 391,-86.5"/>
<text text-anchor="middle" x="341" y="-73" font-family="monospace" font-size="10.00">AddmmBackward0</text>
</g>
<!-- 2890742592800&#45;&gt;2890819084800 -->
<g id="edge23" class="edge">
<title>2890742592800&#45;&gt;2890819084800</title>
<path fill="none" stroke="black" d="M341,-66.88C341,-60.39 341,-51.29 341,-42.62"/>
<polygon fill="black" stroke="black" points="344.5,-42.71 341,-32.71 337.5,-42.71 344.5,-42.71"/>
</g>
<!-- 2890742593952 -->
<g id="node3" class="node">
<title>2890742593952</title>
<polygon fill="lightgrey" stroke="black" points="273,-141.75 173,-141.75 173,-122.5 273,-122.5 273,-141.75"/>
<text text-anchor="middle" x="223" y="-128.25" font-family="monospace" font-size="10.00">AccumulateGrad</text>
</g>
<!-- 2890742593952&#45;&gt;2890742592800 -->
<g id="edge1" class="edge">
<title>2890742593952&#45;&gt;2890742592800</title>
<path fill="none" stroke="black" d="M243.02,-122.09C261.66,-113.68 289.72,-101.02 311.03,-91.4"/>
<polygon fill="black" stroke="black" points="312.21,-94.26 319.88,-86.95 309.33,-87.88 312.21,-94.26"/>
</g>
<!-- 2890540155504 -->
<g id="node4" class="node">
<title>2890540155504</title>
<polygon fill="lightblue" stroke="black" points="252,-208.25 194,-208.25 194,-177.75 252,-177.75 252,-208.25"/>
<text text-anchor="middle" x="223" y="-194.75" font-family="monospace" font-size="10.00">fc.bias</text>
<text text-anchor="middle" x="223" y="-183.5" font-family="monospace" font-size="10.00"> (3)</text>
</g>
<!-- 2890540155504&#45;&gt;2890742593952 -->
<g id="edge2" class="edge">
<title>2890540155504&#45;&gt;2890742593952</title>
<path fill="none" stroke="black" d="M223,-177.45C223,-170.12 223,-161.12 223,-153.16"/>
<polygon fill="black" stroke="black" points="226.5,-153.2 223,-143.2 219.5,-153.2 226.5,-153.2"/>
</g>
<!-- 2890742593040 -->
<g id="node5" class="node">
<title>2890742593040</title>
<polygon fill="lightgrey" stroke="black" points="391,-141.75 291,-141.75 291,-122.5 391,-122.5 391,-141.75"/>
<text text-anchor="middle" x="341" y="-128.25" font-family="monospace" font-size="10.00">SliceBackward0</text>
</g>
<!-- 2890742593040&#45;&gt;2890742592800 -->
<g id="edge3" class="edge">
<title>2890742593040&#45;&gt;2890742592800</title>
<path fill="none" stroke="black" d="M341,-122.33C341,-115.67 341,-106.24 341,-97.78"/>
<polygon fill="black" stroke="black" points="344.5,-97.86 341,-87.86 337.5,-97.86 344.5,-97.86"/>
</g>
<!-- 2890742594000 -->
<g id="node6" class="node">
<title>2890742594000</title>
<polygon fill="lightgrey" stroke="black" points="390,-202.62 284,-202.62 284,-183.38 390,-183.38 390,-202.62"/>
<text text-anchor="middle" x="337" y="-189.12" font-family="monospace" font-size="10.00">SelectBackward0</text>
</g>
<!-- 2890742594000&#45;&gt;2890742593040 -->
<g id="edge4" class="edge">
<title>2890742594000&#45;&gt;2890742593040</title>
<path fill="none" stroke="black" d="M337.61,-183.06C338.15,-175.1 338.96,-163.19 339.65,-152.99"/>
<polygon fill="black" stroke="black" points="343.2,-153.37 340.39,-143.15 336.22,-152.89 343.2,-153.37"/>
</g>
<!-- 2890742593760 -->
<g id="node7" class="node">
<title>2890742593760</title>
<polygon fill="lightgrey" stroke="black" points="387,-269.12 287,-269.12 287,-249.88 387,-249.88 387,-269.12"/>
<text text-anchor="middle" x="337" y="-255.62" font-family="monospace" font-size="10.00">SliceBackward0</text>
</g>
<!-- 2890742593760&#45;&gt;2890742594000 -->
<g id="edge5" class="edge">
<title>2890742593760&#45;&gt;2890742594000</title>
<path fill="none" stroke="black" d="M337,-249.53C337,-240.29 337,-225.58 337,-213.63"/>
<polygon fill="black" stroke="black" points="340.5,-213.89 337,-203.89 333.5,-213.89 340.5,-213.89"/>
</g>
<!-- 2890742593472 -->
<g id="node8" class="node">
<title>2890742593472</title>
<polygon fill="lightgrey" stroke="black" points="399,-330 275,-330 275,-310.75 399,-310.75 399,-330"/>
<text text-anchor="middle" x="337" y="-316.5" font-family="monospace" font-size="10.00">TransposeBackward0</text>
</g>
<!-- 2890742593472&#45;&gt;2890742593760 -->
<g id="edge6" class="edge">
<title>2890742593472&#45;&gt;2890742593760</title>
<path fill="none" stroke="black" d="M337,-310.43C337,-302.48 337,-290.56 337,-280.37"/>
<polygon fill="black" stroke="black" points="340.5,-280.53 337,-270.53 333.5,-280.53 340.5,-280.53"/>
</g>
<!-- 2890742594288 -->
<g id="node9" class="node">
<title>2890742594288</title>
<polygon fill="lightgrey" stroke="black" points="414,-385.25 260,-385.25 260,-366 414,-366 414,-385.25"/>
<text text-anchor="middle" x="337" y="-371.75" font-family="monospace" font-size="10.00">MkldnnRnnLayerBackward0</text>
</g>
<!-- 2890742594288&#45;&gt;2890742593472 -->
<g id="edge7" class="edge">
<title>2890742594288&#45;&gt;2890742593472</title>
<path fill="none" stroke="black" d="M337,-365.83C337,-359.17 337,-349.74 337,-341.28"/>
<polygon fill="black" stroke="black" points="340.5,-341.36 337,-331.36 333.5,-341.36 340.5,-341.36"/>
</g>
<!-- 2890742594336 -->
<g id="node10" class="node">
<title>2890742594336</title>
<polygon fill="lightgrey" stroke="black" points="131,-440.5 7,-440.5 7,-421.25 131,-421.25 131,-440.5"/>
<text text-anchor="middle" x="69" y="-427" font-family="monospace" font-size="10.00">TransposeBackward0</text>
</g>
<!-- 2890742594336&#45;&gt;2890742594288 -->
<g id="edge8" class="edge">
<title>2890742594336&#45;&gt;2890742594288</title>
<path fill="none" stroke="black" d="M114.77,-420.78C160.73,-411.65 231.62,-397.56 280.93,-387.76"/>
<polygon fill="black" stroke="black" points="281.3,-391.06 290.42,-385.68 279.93,-384.2 281.3,-391.06"/>
</g>
<!-- 2890742594672 -->
<g id="node11" class="node">
<title>2890742594672</title>
<polygon fill="lightgrey" stroke="black" points="124,-501.38 0,-501.38 0,-482.12 124,-482.12 124,-501.38"/>
<text text-anchor="middle" x="62" y="-487.88" font-family="monospace" font-size="10.00">EmbeddingBackward0</text>
</g>
<!-- 2890742594672&#45;&gt;2890742594336 -->
<g id="edge9" class="edge">
<title>2890742594672&#45;&gt;2890742594336</title>
<path fill="none" stroke="black" d="M63.06,-481.81C64.01,-473.85 65.43,-461.94 66.64,-451.74"/>
<polygon fill="black" stroke="black" points="70.22,-452.24 67.93,-441.9 63.27,-451.42 70.22,-452.24"/>
</g>
<!-- 2890742594720 -->
<g id="node12" class="node">
<title>2890742594720</title>
<polygon fill="lightgrey" stroke="black" points="112,-562.25 12,-562.25 12,-543 112,-543 112,-562.25"/>
<text text-anchor="middle" x="62" y="-548.75" font-family="monospace" font-size="10.00">AccumulateGrad</text>
</g>
<!-- 2890742594720&#45;&gt;2890742594672 -->
<g id="edge10" class="edge">
<title>2890742594720&#45;&gt;2890742594672</title>
<path fill="none" stroke="black" d="M62,-542.68C62,-534.73 62,-522.81 62,-512.62"/>
<polygon fill="black" stroke="black" points="65.5,-512.78 62,-502.78 58.5,-512.78 65.5,-512.78"/>
</g>
<!-- 2890704316800 -->
<g id="node13" class="node">
<title>2890704316800</title>
<polygon fill="lightblue" stroke="black" points="118,-628.75 6,-628.75 6,-598.25 118,-598.25 118,-628.75"/>
<text text-anchor="middle" x="62" y="-615.25" font-family="monospace" font-size="10.00">embedding.weight</text>
<text text-anchor="middle" x="62" y="-604" font-family="monospace" font-size="10.00"> (13859, 100)</text>
</g>
<!-- 2890704316800&#45;&gt;2890742594720 -->
<g id="edge11" class="edge">
<title>2890704316800&#45;&gt;2890742594720</title>
<path fill="none" stroke="black" d="M62,-597.95C62,-590.62 62,-581.62 62,-573.66"/>
<polygon fill="black" stroke="black" points="65.5,-573.7 62,-563.7 58.5,-573.7 65.5,-573.7"/>
</g>
<!-- 2890742594096 -->
<g id="node14" class="node">
<title>2890742594096</title>
<polygon fill="lightgrey" stroke="black" points="262,-440.5 162,-440.5 162,-421.25 262,-421.25 262,-440.5"/>
<text text-anchor="middle" x="212" y="-427" font-family="monospace" font-size="10.00">AccumulateGrad</text>
</g>
<!-- 2890742594096&#45;&gt;2890742594288 -->
<g id="edge12" class="edge">
<title>2890742594096&#45;&gt;2890742594288</title>
<path fill="none" stroke="black" d="M233.2,-420.84C253.14,-412.35 283.21,-399.54 305.87,-389.89"/>
<polygon fill="black" stroke="black" points="306.86,-392.84 314.69,-385.7 304.12,-386.4 306.86,-392.84"/>
</g>
<!-- 2892656961520 -->
<g id="node15" class="node">
<title>2892656961520</title>
<polygon fill="lightblue" stroke="black" points="260,-507 142,-507 142,-476.5 260,-476.5 260,-507"/>
<text text-anchor="middle" x="201" y="-493.5" font-family="monospace" font-size="10.00">lstm.weight_ih_l0</text>
<text text-anchor="middle" x="201" y="-482.25" font-family="monospace" font-size="10.00"> (512, 100)</text>
</g>
<!-- 2892656961520&#45;&gt;2890742594096 -->
<g id="edge13" class="edge">
<title>2892656961520&#45;&gt;2890742594096</title>
<path fill="none" stroke="black" d="M203.72,-476.2C205.1,-468.78 206.81,-459.66 208.31,-451.63"/>
<polygon fill="black" stroke="black" points="211.91,-452.42 210.3,-441.95 205.03,-451.14 211.91,-452.42"/>
</g>
<!-- 2890742593328 -->
<g id="node16" class="node">
<title>2890742593328</title>
<polygon fill="lightgrey" stroke="black" points="387,-440.5 287,-440.5 287,-421.25 387,-421.25 387,-440.5"/>
<text text-anchor="middle" x="337" y="-427" font-family="monospace" font-size="10.00">AccumulateGrad</text>
</g>
<!-- 2890742593328&#45;&gt;2890742594288 -->
<g id="edge14" class="edge">
<title>2890742593328&#45;&gt;2890742594288</title>
<path fill="none" stroke="black" d="M337,-421.08C337,-414.42 337,-404.99 337,-396.53"/>
<polygon fill="black" stroke="black" points="340.5,-396.61 337,-386.61 333.5,-396.61 340.5,-396.61"/>
</g>
<!-- 2892656961440 -->
<g id="node17" class="node">
<title>2892656961440</title>
<polygon fill="lightblue" stroke="black" points="396,-507 278,-507 278,-476.5 396,-476.5 396,-507"/>
<text text-anchor="middle" x="337" y="-493.5" font-family="monospace" font-size="10.00">lstm.weight_hh_l0</text>
<text text-anchor="middle" x="337" y="-482.25" font-family="monospace" font-size="10.00"> (512, 128)</text>
</g>
<!-- 2892656961440&#45;&gt;2890742593328 -->
<g id="edge15" class="edge">
<title>2892656961440&#45;&gt;2890742593328</title>
<path fill="none" stroke="black" d="M337,-476.2C337,-468.87 337,-459.87 337,-451.91"/>
<polygon fill="black" stroke="black" points="340.5,-451.95 337,-441.95 333.5,-451.95 340.5,-451.95"/>
</g>
<!-- 2890742594432 -->
<g id="node18" class="node">
<title>2890742594432</title>
<polygon fill="lightgrey" stroke="black" points="511,-440.5 411,-440.5 411,-421.25 511,-421.25 511,-440.5"/>
<text text-anchor="middle" x="461" y="-427" font-family="monospace" font-size="10.00">AccumulateGrad</text>
</g>
<!-- 2890742594432&#45;&gt;2890742594288 -->
<g id="edge16" class="edge">
<title>2890742594432&#45;&gt;2890742594288</title>
<path fill="none" stroke="black" d="M439.97,-420.84C420.28,-412.39 390.62,-399.65 368.19,-390.02"/>
<polygon fill="black" stroke="black" points="369.71,-386.43 359.14,-385.7 366.95,-392.86 369.71,-386.43"/>
</g>
<!-- 2892656961040 -->
<g id="node19" class="node">
<title>2892656961040</title>
<polygon fill="lightblue" stroke="black" points="520,-507 414,-507 414,-476.5 520,-476.5 520,-507"/>
<text text-anchor="middle" x="467" y="-493.5" font-family="monospace" font-size="10.00">lstm.bias_ih_l0</text>
<text text-anchor="middle" x="467" y="-482.25" font-family="monospace" font-size="10.00"> (512)</text>
</g>
<!-- 2892656961040&#45;&gt;2890742594432 -->
<g id="edge17" class="edge">
<title>2892656961040&#45;&gt;2890742594432</title>
<path fill="none" stroke="black" d="M465.52,-476.2C464.76,-468.78 463.83,-459.66 463.01,-451.63"/>
<polygon fill="black" stroke="black" points="466.42,-451.54 461.92,-441.95 459.46,-452.25 466.42,-451.54"/>
</g>
<!-- 2890742594480 -->
<g id="node20" class="node">
<title>2890742594480</title>
<polygon fill="lightgrey" stroke="black" points="635,-440.5 535,-440.5 535,-421.25 635,-421.25 635,-440.5"/>
<text text-anchor="middle" x="585" y="-427" font-family="monospace" font-size="10.00">AccumulateGrad</text>
</g>
<!-- 2890742594480&#45;&gt;2890742594288 -->
<g id="edge18" class="edge">
<title>2890742594480&#45;&gt;2890742594288</title>
<path fill="none" stroke="black" d="M542.65,-420.78C500.38,-411.71 435.34,-397.74 389.74,-387.95"/>
<polygon fill="black" stroke="black" points="390.69,-384.36 380.18,-385.68 389.22,-391.2 390.69,-384.36"/>
</g>
<!-- 2890711435680 -->
<g id="node21" class="node">
<title>2890711435680</title>
<polygon fill="lightblue" stroke="black" points="644,-507 538,-507 538,-476.5 644,-476.5 644,-507"/>
<text text-anchor="middle" x="591" y="-493.5" font-family="monospace" font-size="10.00">lstm.bias_hh_l0</text>
<text text-anchor="middle" x="591" y="-482.25" font-family="monospace" font-size="10.00"> (512)</text>
</g>
<!-- 2890711435680&#45;&gt;2890742594480 -->
<g id="edge19" class="edge">
<title>2890711435680&#45;&gt;2890742594480</title>
<path fill="none" stroke="black" d="M589.52,-476.2C588.76,-468.78 587.83,-459.66 587.01,-451.63"/>
<polygon fill="black" stroke="black" points="590.42,-451.54 585.92,-441.95 583.46,-452.25 590.42,-451.54"/>
</g>
<!-- 2890742594144 -->
<g id="node22" class="node">
<title>2890742594144</title>
<polygon fill="lightgrey" stroke="black" points="489,-141.75 413,-141.75 413,-122.5 489,-122.5 489,-141.75"/>
<text text-anchor="middle" x="451" y="-128.25" font-family="monospace" font-size="10.00">TBackward0</text>
</g>
<!-- 2890742594144&#45;&gt;2890742592800 -->
<g id="edge20" class="edge">
<title>2890742594144&#45;&gt;2890742592800</title>
<path fill="none" stroke="black" d="M432.34,-122.09C415.11,-113.75 389.28,-101.25 369.48,-91.66"/>
<polygon fill="black" stroke="black" points="371.28,-88.16 360.75,-86.95 368.23,-94.46 371.28,-88.16"/>
</g>
<!-- 2890742593856 -->
<g id="node23" class="node">
<title>2890742593856</title>
<polygon fill="lightgrey" stroke="black" points="508,-202.62 408,-202.62 408,-183.38 508,-183.38 508,-202.62"/>
<text text-anchor="middle" x="458" y="-189.12" font-family="monospace" font-size="10.00">AccumulateGrad</text>
</g>
<!-- 2890742593856&#45;&gt;2890742594144 -->
<g id="edge21" class="edge">
<title>2890742593856&#45;&gt;2890742594144</title>
<path fill="none" stroke="black" d="M456.94,-183.06C455.99,-175.1 454.57,-163.19 453.36,-152.99"/>
<polygon fill="black" stroke="black" points="456.73,-152.67 452.07,-143.15 449.78,-153.49 456.73,-152.67"/>
</g>
<!-- 2890540155584 -->
<g id="node24" class="node">
<title>2890540155584</title>
<polygon fill="lightblue" stroke="black" points="493,-274.75 423,-274.75 423,-244.25 493,-244.25 493,-274.75"/>
<text text-anchor="middle" x="458" y="-261.25" font-family="monospace" font-size="10.00">fc.weight</text>
<text text-anchor="middle" x="458" y="-250" font-family="monospace" font-size="10.00"> (3, 128)</text>
</g>
<!-- 2890540155584&#45;&gt;2890742593856 -->
<g id="edge22" class="edge">
<title>2890540155584&#45;&gt;2890742593856</title>
<path fill="none" stroke="black" d="M458,-243.86C458,-234.88 458,-223.26 458,-213.51"/>
<polygon fill="black" stroke="black" points="461.5,-213.82 458,-203.82 454.5,-213.82 461.5,-213.82"/>
</g>
</g>
</svg>
